<!DOCTYPE svg PUBLIC "-//W3C//DTD SVG 20010904//EN" "http://www.w3.org/TR/2001/REC-SVG-20010904/DTD/svg10.dtd">
<svg version="1.0" xmlns="http://www.w3.org/2000/svg" width="176px" height="119px" viewBox="0 0 1760 1190" preserveAspectRatio="xMidYMid meet">
<g id="layer101" fill="#00758f" stroke="none">
 <path d="M487 1173 c-4 -3 -7 -16 -7 -28 0 -18 6 -22 26 -22 14 0 35 -10 46 -21 l21 -20 -43 -139 c-24 -76 -45 -144 -47 -150 -4 -9 7 -13 34 -13 l39 0 29 100 c17 55 33 100 36 100 6 0 28 -84 44 -167 6 -30 10 -33 41 -33 40 0 40 0 15 100 -40 159 -91 254 -150 285 -31 16 -73 20 -84 8z"/>
 <path d="M1300 1108 c-24 -15 -59 -24 -109 -28 -67 -6 -77 -10 -102 -38 -78 -87 -57 -300 34 -349 44 -23 135 -23 171 1 15 10 37 38 48 63 28 64 23 202 -10 255 l-22 36 30 12 c33 14 36 26 16 53 -16 21 -14 21 -56 -5z m-36 -121 c16 -21 20 -43 21 -100 0 -88 -16 -131 -57 -148 -26 -10 -35 -10 -57 2 -37 21 -51 55 -51 131 0 109 25 151 89 146 23 -2 40 -12 55 -31z"/>
 <path d="M53 938 c4 -79 10 -169 13 -200 l7 -58 46 0 47 0 39 123 c21 67 42 125 45 129 3 4 25 -51 49 -122 l42 -130 44 0 43 0 6 48 c8 61 26 278 26 320 0 31 -2 32 -40 32 l-40 0 -1 -92 c0 -51 -4 -115 -7 -143 l-7 -50 -45 143 -44 143 -30 -3 c-30 -3 -31 -6 -71 -130 -22 -70 -43 -130 -47 -134 -5 -4 -8 40 -8 98 0 149 -5 168 -43 168 l-30 0 6 -142z"/>
 <path d="M805 1064 c-16 -9 -31 -18 -33 -19 -2 -2 1 -13 7 -24 10 -17 16 -19 37 -11 14 6 43 10 64 10 30 0 43 -5 55 -24 23 -34 11 -52 -66 -97 -78 -45 -89 -60 -89 -122 0 -50 26 -81 80 -97 38 -11 101 -4 126 15 22 16 10 59 -14 50 -45 -18 -87 -17 -105 3 -29 32 -13 58 63 102 78 46 90 61 90 119 0 31 -7 49 -29 73 -25 29 -35 32 -92 35 -46 2 -73 -1 -94 -13z"/>
 <path d="M1410 880 l0 -200 35 0 35 0 0 170 0 170 60 0 60 0 0 30 0 30 -95 0 -95 0 0 -200z"/>
 <path d="M1640 1060 c0 -11 -4 -20 -10 -20 -5 0 -10 -5 -10 -10 0 -6 26 -10 60 -9 58 2 60 2 60 29 0 24 -4 27 -34 28 -28 1 -35 -3 -39 -21 l-4 -22 -2 23 c-1 27 -21 30 -21 2z"/>
 <path d="M1657 669 c-72 -43 -107 -83 -90 -100 6 -6 29 -13 52 -16 l42 -6 -36 -24 c-20 -13 -53 -30 -73 -37 -34 -11 -42 -22 -93 -124 -31 -63 -72 -130 -95 -153 -48 -50 -130 -99 -165 -99 -15 0 -48 -12 -73 -26 -26 -15 -50 -24 -53 -20 -3 3 6 23 20 43 14 21 35 62 46 92 11 29 27 61 36 71 14 15 14 23 2 70 -10 38 -11 66 -5 94 11 51 28 70 28 33 0 -30 19 -77 31 -77 5 0 22 27 39 60 16 32 44 75 61 95 50 56 9 43 -45 -15 -41 -44 -48 -48 -53 -31 -3 11 -11 22 -19 25 -52 20 -95 -84 -74 -178 8 -37 7 -51 -5 -69 -8 -12 -21 -43 -30 -67 -9 -25 -27 -61 -41 -82 -16 -23 -24 -46 -22 -65 2 -24 8 -28 36 -31 18 -2 51 6 75 17 23 11 60 25 83 31 101 25 191 115 260 261 45 93 50 99 98 123 58 28 122 89 112 105 -4 6 -19 11 -34 11 -52 0 -53 14 -5 50 45 34 84 80 67 80 -5 -1 -39 -19 -77 -41z"/>
 <path d="M1188 175 c-23 -31 -23 -37 4 -33 13 2 24 11 26 22 6 30 -12 36 -30 11z"/>
 </g>
<g id="layer102" fill="#5d87a1" stroke="none">
 <path d="M1300 1108 c-24 -15 -59 -24 -109 -28 -67 -6 -77 -10 -102 -38 -78 -87 -57 -300 34 -349 44 -23 135 -23 171 1 15 10 37 38 48 63 28 64 23 202 -10 255 l-22 36 30 12 c33 14 36 26 16 53 -16 21 -14 21 -56 -5z m-36 -121 c16 -21 20 -43 21 -100 0 -88 -16 -131 -57 -148 -26 -10 -35 -10 -57 2 -37 21 -51 55 -51 131 0 109 25 151 89 146 23 -2 40 -12 55 -31z"/>
 <path d="M805 1064 c-16 -9 -31 -18 -33 -19 -2 -2 1 -13 7 -24 10 -17 16 -19 37 -11 14 6 43 10 64 10 30 0 43 -5 55 -24 23 -34 11 -52 -66 -97 -78 -45 -89 -60 -89 -122 0 -50 26 -81 80 -97 38 -11 101 -4 126 15 22 16 10 59 -14 50 -45 -18 -87 -17 -105 3 -29 32 -13 58 63 102 78 46 90 61 90 119 0 31 -7 49 -29 73 -25 29 -35 32 -92 35 -46 2 -73 -1 -94 -13z"/>
 <path d="M1410 880 l0 -200 35 0 35 0 0 170 0 170 60 0 60 0 0 30 0 30 -95 0 -95 0 0 -200z"/>
 <path d="M1640 1060 c0 -11 -4 -20 -10 -20 -5 0 -10 -5 -10 -10 0 -6 26 -10 60 -9 58 2 60 2 60 29 0 24 -4 27 -34 28 -28 1 -35 -3 -39 -21 l-4 -22 -2 23 c-1 27 -21 30 -21 2z"/>
 <path d="M1188 175 c-23 -31 -23 -37 4 -33 13 2 24 11 26 22 6 30 -12 36 -30 11z"/>
 </g>
<g id="layer103" fill="#f29111" stroke="none">
 <path d="M1300 1108 c-24 -15 -59 -24 -109 -28 -67 -6 -77 -10 -102 -38 -78 -87 -57 -300 34 -349 44 -23 135 -23 171 1 15 10 37 38 48 63 28 64 23 202 -10 255 l-22 36 30 12 c33 14 36 26 16 53 -16 21 -14 21 -56 -5z m-36 -121 c16 -21 20 -43 21 -100 0 -88 -16 -131 -57 -148 -26 -10 -35 -10 -57 2 -37 21 -51 55 -51 131 0 109 25 151 89 146 23 -2 40 -12 55 -31z"/>
 <path d="M805 1064 c-16 -9 -31 -18 -33 -19 -2 -2 1 -13 7 -24 10 -17 16 -19 37 -11 14 6 43 10 64 10 30 0 43 -5 55 -24 23 -34 11 -52 -66 -97 -78 -45 -89 -60 -89 -122 0 -50 26 -81 80 -97 38 -11 101 -4 126 15 22 16 10 59 -14 50 -45 -18 -87 -17 -105 3 -29 32 -13 58 63 102 78 46 90 61 90 119 0 31 -7 49 -29 73 -25 29 -35 32 -92 35 -46 2 -73 -1 -94 -13z"/>
 <path d="M1410 880 l0 -200 35 0 35 0 0 170 0 170 60 0 60 0 0 30 0 30 -95 0 -95 0 0 -200z"/>
 <path d="M1640 1060 c0 -11 -4 -20 -10 -20 -5 0 -10 -5 -10 -10 0 -6 26 -10 60 -9 58 2 60 2 60 29 0 24 -4 27 -34 28 -28 1 -35 -3 -39 -21 l-4 -22 -2 23 c-1 27 -21 30 -21 2z"/>
 </g>

</svg>